<svg width="296" height="117" viewBox="0 0 296 117" fill="none" xmlns="http://www.w3.org/2000/svg">
<path d="M66.2189 78.7103C46.9702 78.7103 31.3661 63.0796 31.3661 43.7981C31.3661 24.5167 46.9702 8.88596 66.2189 8.88596C85.4676 8.88596 101.072 24.5167 101.072 43.7981C101.072 63.0796 85.4676 78.7103 66.2189 78.7103Z" fill="#F6F6F6" stroke="#00205B" stroke-width="1.5"/>
<path d="M69.0525 42.9466C67.1746 42.9466 65.6523 41.4216 65.6523 39.5405C65.6523 37.6594 67.1746 36.1345 69.0525 36.1345C70.9305 36.1345 72.4528 37.6594 72.4528 39.5405C72.4528 41.4216 70.9305 42.9466 69.0525 42.9466Z" fill="#00205B"/>
<path d="M46.9508 42.9466C45.0729 42.9466 43.5505 41.4216 43.5505 39.5405C43.5505 37.6594 45.0729 36.1345 46.9508 36.1345C48.8287 36.1345 50.351 37.6594 50.351 39.5405C50.351 41.4216 48.8287 42.9466 46.9508 42.9466Z" fill="#00205B"/>
<path d="M46.2204 54.8679C44.1152 54.8679 42.7118 57.478 44.1152 59.139C48.7934 65.7829 57.4481 68.6303 65.401 65.5457C68.6757 64.3592 71.4827 61.9864 73.5878 59.139C74.9913 57.478 73.5878 54.8679 71.4827 54.8679H46.2204Z" fill="#00205B"/>
<path d="M86.0538 88.9286H94.2282C97.5941 88.9286 100.72 86.5602 101.441 83.2443L109.856 53.1649" stroke="white" stroke-width="1.5" stroke-linecap="round"/>
<path d="M107.816 55.8208H111.896C113.334 55.8208 114.206 54.9309 114.206 53.7841V38.9212C114.206 37.7744 113.334 36.8845 111.896 36.8845H107.816C106.377 36.8845 105.505 37.7744 105.505 38.9212V53.7841C105.505 54.9309 106.377 55.8208 107.816 55.8208Z" fill="#8DC8E8" stroke="#00205B" stroke-width="1.5"/>
<path d="M88.9818 91.2844V86.2888C88.9818 85.8347 88.5285 85.3805 88.0751 85.3805H79.6878C79.2344 85.3805 78.781 85.8347 78.781 86.2888V91.2844C78.781 91.7385 79.2344 92.1926 79.6878 92.1926H88.0751C88.7552 91.9656 88.9818 91.7385 88.9818 91.2844Z" fill="#8DC8E8" stroke="#00205B" stroke-width="1.5"/>
<path d="M40.7218 80.4525C39.6926 79.6434 38.199 79.8222 37.3899 80.8514L29.2116 91.3865C28.4025 92.4157 28.5813 93.9093 29.6105 94.7184C30.6396 95.5275 32.1332 95.3487 32.9423 94.3195L41.1206 83.7844C41.9435 82.8701 41.7647 81.3765 40.7218 80.4525Z" fill="#8DC8E8"/>
<path d="M30.306 13.8125C29.4969 14.8417 28.0034 15.0205 26.9742 14.2114L16.5402 5.90438C15.5111 5.09529 15.3322 3.60171 16.1413 2.57255C16.9504 1.54339 18.444 1.36459 19.4732 2.17368L29.9072 10.4807C30.9226 11.1749 31.1014 12.6684 30.306 13.8125Z" fill="#8DC8E8"/>
<path d="M21.1784 37.7814C20.7326 39.0123 19.3704 39.6503 18.1395 39.2046L5.62744 34.5869C4.39653 34.1411 3.75856 32.7789 4.20428 31.548C4.65 30.3171 6.01226 29.6791 7.24317 30.1248L19.7552 34.7425C20.937 35.0834 21.575 36.4457 21.1784 37.7814Z" fill="#8DC8E8"/>
<path d="M9.18089 71.4599C9.90456 72.5509 11.3789 72.8492 12.4698 72.1256L23.5383 64.685C24.6292 63.9613 24.9276 62.4869 24.204 61.396C23.4803 60.3051 22.0059 60.0067 20.915 60.7304L9.84651 68.171C8.77855 68.7813 8.48016 70.2556 9.18089 71.4599Z" fill="#8DC8E8"/>
</svg>
